# xmcd
#
# Track frame offsets:
#	183
#	11235
#	22735
#	34588
#	48030
#	60035
#	74410
#	87310
#	101843
#	116223
#	129075
#	142810
#	155300
#	169173
#	182335
#	196358
#	207083
#	218750
#	229175
#	242113
#
# Disc length: 3398 seconds
#
# Revision: 0
# Processed by: cddbd v1.5.2PL0 Copyright (c) Steve Scherf et al.
# Submitted via: dBpowerAMP V4.0
#
DISCID=000d4414
DTITLE=Various Artist - Country Love
DYEAR=1996
DGENRE=Country
TTITLE0=Glen Campbell - It's Only Make Believe
TTITLE1=Crystal Gayle - Don't It Make Your Brown Eyes Blue
TTITLE2=Billy Jo Spears - Misty Blue
TTITLE3=SLim Whitman - I'll Take You Home Again Kathleen
TTITLE4=Wanda Jackson - Stand By Your Man
TTITLE5=Tanya Tucker - Just Another Love
TTITLE6=Bobbie Gentry - I'll Never Fall In Love Again
TTITLE7=Olivia Newton-John - If You Love Me (Let Me Know)
TTITLE8=Dr Hook - If Not You
TTITLE9=Don Williams - You Love Me Through It All
TTITLE10=Willie Nelson - Have I told You Lately That I Love You
TTITLE11=Faron Young - Sweet Dreams
TTITLE12=Juice Newton - All I Have To Do Is Dream
TTITLE13=Crystal Gayle - Talking In Your Sleep
TTITLE14=Lacy J Dalton - Still Crazy After All These Years
TTITLE15=Slim Whitman - Rose Marie
TTITLE16=Billie Jo Spears - Love Letters In The Sand
TTITLE17=Various Artist - Reason To Believe
TTITLE18=Barbara Mandrell - I Wish I Could Fall In Love Today
TTITLE19=Willie Nelson - Crazy
EXTD=
EXTT0=
EXTT1=
EXTT2=
EXTT3=
EXTT4=
EXTT5=
EXTT6=
EXTT7=
EXTT8=
EXTT9=
EXTT10=
EXTT11=
EXTT12=
EXTT13=
EXTT14=
EXTT15=
EXTT16=
EXTT17=
EXTT18=
EXTT19=
PLAYORDER=
